<svg width="17.000000" height="24.000000" viewBox="0 0 17 24" fill="none" xmlns="http://www.w3.org/2000/svg" xmlns:xlink="http://www.w3.org/1999/xlink">
	<desc>
			Created with Pixso.
	</desc>
	<defs/>
	<path id="Vector" d="M4.13235 21.2308L4.13235 23.5385C4.13235 23.7932 4.33823 24 4.59192 24L6.43015 24C6.55203 24 6.66891 23.9514 6.7551 23.8648C6.84128 23.7783 6.88971 23.6609 6.88971 23.5385L6.88971 21.2308L7.80884 21.2308L7.80884 23.5385C7.80884 23.7932 8.01471 24 8.26837 24L10.1066 24C10.2285 24 10.3454 23.9514 10.4316 23.8648C10.5178 23.7783 10.5662 23.6609 10.5662 23.5385L10.5662 21.2308L10.7206 21.2308C14.3824 21.2308 17 19.3237 17 16.0246C17 13.2517 15.1489 11.736 12.9816 11.52L12.9816 11.3575C14.7647 10.9108 16.0754 9.55939 16.0754 7.31447C16.0754 4.48616 13.9614 2.76923 10.7353 2.76923L10.5662 2.76923L10.5662 0.461533C10.5662 0.339127 10.5178 0.221741 10.4316 0.135178C10.3454 0.0486298 10.2285 0 10.1066 0L8.26837 0C8.14648 0 8.0296 0.0486298 7.94342 0.135178C7.85724 0.221741 7.80884 0.339127 7.80884 0.461533L7.80884 2.76923L6.75552 2.76923L6.75552 0.461533C6.75552 0.339127 6.70709 0.221741 6.62091 0.135178C6.53473 0.0486298 6.41785 0 6.29596 0L4.59192 0C4.47003 0 4.35315 0.0486298 4.26697 0.135178C4.18076 0.221741 4.13235 0.339127 4.13235 0.461533L4.13235 2.76923L0.459564 2.78954C0.337677 2.78954 0.220795 2.83817 0.134613 2.92471C0.0484314 3.01128 0 3.12866 0 3.25108L0 5.07692C0 5.32985 0.202209 5.53847 0.455872 5.53847L1.84375 5.52924C2.20779 5.53166 2.55612 5.67862 2.81268 5.93802C3.06924 6.19743 3.21326 6.54822 3.21323 6.91385L3.21323 17.0769C3.21323 17.4442 3.06799 17.7963 2.80942 18.056C2.55087 18.3157 2.2002 18.4615 1.83456 18.4615L0.459564 18.4818C0.337677 18.4818 0.220795 18.5305 0.134613 18.617C0.0484314 18.7036 0 18.821 0 18.9434L0 20.7895C0 21.0443 0.205872 21.2511 0.459564 21.2511L4.13235 21.2308ZM6.75552 5.51447L9.91544 5.51447C11.5809 5.51447 12.5588 6.43384 12.5588 7.93661C12.5588 9.54462 11.5018 10.4511 9.10846 10.4511L6.75552 10.4511L6.75552 5.51447ZM6.75552 12.9932L10.1379 12.9932C12.2279 12.9932 13.3658 14.064 13.3658 15.8068C13.3658 17.5662 12.2151 18.4837 9.3989 18.4837L6.75552 18.4837L6.75552 12.9951L6.75552 12.9932Z" fill="#ABB2BF" fill-opacity="1.000000" fill-rule="nonzero"/>
</svg>
