<svg width="22.000000" height="16.000000" viewBox="0 0 22 16" fill="none" xmlns="http://www.w3.org/2000/svg" xmlns:xlink="http://www.w3.org/1999/xlink">
	<desc>
			Created with Pixso.
	</desc>
	<defs/>
	<path id="Vector" d="M0 2.66667C0 1.95943 0.289734 1.28114 0.80545 0.781052C1.32117 0.280945 2.02066 0 2.75 0L19.25 0C19.9793 0 20.6788 0.280945 21.1945 0.781052C21.7103 1.28114 22 1.95943 22 2.66667L22 9.33333L0 9.33333L0 2.66667ZM15.8125 4C15.6302 4 15.4553 4.07024 15.3264 4.19527C15.1974 4.32028 15.125 4.48985 15.125 4.66667L15.125 6C15.125 6.17682 15.1974 6.34637 15.3264 6.47141C15.4553 6.59644 15.6302 6.66667 15.8125 6.66667L18.5625 6.66667C18.7448 6.66667 18.9197 6.59644 19.0486 6.47141C19.1776 6.34637 19.25 6.17682 19.25 6L19.25 4.66667C19.25 4.48985 19.1776 4.32028 19.0486 4.19527C18.9197 4.07024 18.7448 4 18.5625 4L15.8125 4ZM0 12L0 13.3333C0 14.0406 0.289734 14.7189 0.80545 15.2189C1.32117 15.7191 2.02066 16 2.75 16L19.25 16C19.9793 16 20.6788 15.7191 21.1945 15.2189C21.7103 14.7189 22 14.0406 22 13.3333L22 12L0 12Z" fill="#ABB2BF" fill-opacity="1.000000" fill-rule="nonzero"/>
</svg>
