<svg width="32.000000" height="32.000000" viewBox="0 0 32 32" fill="none" xmlns="http://www.w3.org/2000/svg" xmlns:xlink="http://www.w3.org/1999/xlink">
	<desc>
			Created with Pixso.
	</desc>
	<defs/>
	<path id="Vector" d="M24.1641 7.65906C22.543 6.87827 20.8325 6.32098 19.0752 6.00113C19.0591 5.99832 19.043 6.00076 19.0283 6.00809C19.0137 6.01544 19.0015 6.02734 18.9937 6.04214C18.7734 6.45212 18.5298 6.98834 18.3594 7.40814C16.4653 7.10645 14.5381 7.10645 12.644 7.40814C12.4541 6.94049 12.2388 6.48444 12 6.04214C11.9922 6.0275 11.98 6.01575 11.9658 6.00842C11.9512 6.0011 11.9351 5.99857 11.9189 6.00113C10.1611 6.31927 8.4502 6.87683 6.83008 7.65906C6.81592 7.66461 6.80469 7.67505 6.79688 7.68857C3.55664 12.7706 2.66748 17.7279 3.10352 22.623C3.10498 22.6459 3.11914 22.6689 3.13623 22.6837C5.02344 24.1507 7.13379 25.2708 9.37842 25.9962C9.39404 26.0014 9.41113 26.0013 9.42676 25.9957C9.44287 25.9901 9.45605 25.9793 9.46582 25.965C9.94727 25.2763 10.375 24.5498 10.7441 23.7856C10.7515 23.7699 10.7544 23.752 10.7515 23.7345C10.7485 23.7171 10.7407 23.7011 10.7285 23.6889C10.7202 23.6809 10.7104 23.6747 10.7002 23.6708C10.0269 23.3993 9.375 23.0731 8.75 22.6951C8.73291 22.6848 8.71973 22.6677 8.71387 22.6476C8.70801 22.6274 8.70996 22.6057 8.71875 22.5869C8.72412 22.5747 8.73242 22.564 8.74219 22.5557C8.87354 22.4524 9.00488 22.3442 9.12988 22.236C9.14111 22.2266 9.1543 22.2206 9.16846 22.2186C9.18213 22.2166 9.19678 22.2186 9.20947 22.2245C13.3018 24.1858 17.7314 24.1858 21.7734 22.2245C21.7871 22.2184 21.8018 22.2162 21.8164 22.2182C21.8311 22.2202 21.8447 22.2263 21.8564 22.236C21.9814 22.3442 22.1128 22.4524 22.2437 22.5557C22.2544 22.5639 22.2632 22.5747 22.2686 22.5872C22.2744 22.5996 22.2769 22.6134 22.2764 22.6272C22.2759 22.641 22.272 22.6544 22.2651 22.6663C22.2583 22.6781 22.249 22.688 22.2378 22.6951C21.6143 23.0765 20.9614 23.4024 20.2861 23.6692C20.2754 23.6733 20.2656 23.6798 20.2573 23.6883C20.249 23.6968 20.2432 23.7071 20.2393 23.7184C20.2354 23.7294 20.2339 23.741 20.2349 23.7525C20.2358 23.7641 20.2388 23.7754 20.2437 23.7856C20.6187 24.5482 21.0483 25.2763 21.5205 25.965C21.5298 25.9793 21.5435 25.9901 21.5591 25.9957C21.5752 26.0013 21.5918 26.0014 21.6079 25.9962C23.856 25.2731 25.9702 24.1528 27.8594 22.6837C27.8687 22.6768 27.8765 22.6678 27.8823 22.6572C27.8882 22.6467 27.8916 22.635 27.8921 22.623C28.4141 16.9637 27.0186 12.0474 24.1953 7.69022C24.1924 7.68301 24.1885 7.67651 24.1831 7.67117C24.1777 7.6658 24.1709 7.66168 24.1641 7.65906ZM11.355 19.6417C10.1221 19.6417 9.10791 18.4544 9.10791 16.9982C9.10791 15.5403 10.1035 14.3531 11.355 14.3531C12.6157 14.3531 13.6206 15.5502 13.6016 16.9982C13.6016 18.4544 12.6064 19.6417 11.355 19.6417ZM19.6611 19.6417C18.4297 19.6417 17.4141 18.4544 17.4141 16.9982C17.4141 15.5403 18.4097 14.3531 19.6611 14.3531C20.9219 14.3531 21.9282 15.5502 21.9077 16.9982C21.9077 18.4544 20.9219 19.6417 19.6611 19.6417Z" fill="#ABB2BF" fill-opacity="1.000000" fill-rule="nonzero"/>
</svg>
