<svg width="32.000000" height="32.000000" viewBox="0 0 32 32" fill="none" xmlns="http://www.w3.org/2000/svg" xmlns:xlink="http://www.w3.org/1999/xlink">
	<desc>
			Created with Pixso.
	</desc>
	<defs/>
	<path id="Vector" d="M24.1641 7.65918C22.5431 6.87817 20.8325 6.32104 19.0751 6.00122C19.0592 5.99829 19.0428 6.00073 19.0283 6.00806C19.0137 6.01538 19.0017 6.02734 18.9938 6.04224C18.7736 6.45215 18.5298 6.98828 18.3595 7.4082C16.4651 7.10645 14.5383 7.10645 12.6439 7.4082C12.4539 6.94043 12.239 6.48438 12.0002 6.04224C11.9921 6.02759 11.9801 6.01562 11.9656 6.0083C11.9511 6.00122 11.9348 5.99854 11.9189 6.00122C10.1611 6.31934 8.4502 6.87695 6.8299 7.65918C6.81604 7.66455 6.80444 7.67505 6.79712 7.68848C3.55652 12.7705 2.66748 17.728 3.10339 22.623C3.10498 22.646 3.11902 22.6689 3.13623 22.6836C5.02325 24.1506 7.13397 25.2708 9.3783 25.9961C9.39417 26.0015 9.41119 26.0012 9.42694 25.9956C9.44269 25.99 9.4563 25.9792 9.46582 25.9651C9.94708 25.2764 10.3752 24.5498 10.744 23.7856C10.7516 23.77 10.7543 23.752 10.7515 23.7346C10.7486 23.717 10.7405 23.7012 10.7283 23.689C10.7202 23.6809 10.7106 23.6748 10.7002 23.6709C10.027 23.3994 9.37506 23.073 8.75018 22.6951C8.73273 22.6848 8.71979 22.6677 8.71393 22.6475C8.70813 22.6274 8.7099 22.6057 8.71893 22.5869C8.72424 22.5747 8.7323 22.564 8.74237 22.5557C8.87366 22.4524 9.00488 22.3442 9.12988 22.2358C9.14093 22.2266 9.15417 22.2207 9.16821 22.2185C9.18225 22.2166 9.19653 22.2185 9.20959 22.2244C13.3017 24.1858 17.7314 24.1858 21.7736 22.2244C21.787 22.2183 21.8019 22.2161 21.8164 22.2183C21.8311 22.2202 21.8448 22.2263 21.8563 22.2358C21.9813 22.3442 22.1125 22.4524 22.2438 22.5557C22.2544 22.564 22.2629 22.5747 22.2687 22.5872C22.2744 22.5996 22.277 22.6133 22.2764 22.6272C22.2758 22.6411 22.2719 22.6545 22.2651 22.6663C22.2583 22.6782 22.2489 22.688 22.2375 22.6951C21.6141 23.0767 20.9613 23.4023 20.286 23.6692C20.2753 23.6733 20.2655 23.6799 20.2573 23.6882C20.2493 23.6968 20.243 23.707 20.2391 23.7185C20.2355 23.7292 20.2341 23.741 20.2349 23.7524C20.2357 23.7642 20.2388 23.7754 20.2438 23.7856C20.6188 24.5481 21.0485 25.2764 21.5204 25.9651C21.5299 25.9792 21.5436 25.99 21.5593 25.9956C21.575 26.0012 21.592 26.0015 21.6079 25.9961C23.856 25.2729 25.9701 24.1528 27.8594 22.6836C27.8689 22.6768 27.8767 22.6677 27.8824 22.6572C27.8881 22.6467 27.8914 22.635 27.8922 22.623C28.4141 16.9636 27.0188 12.0474 24.1953 7.69019C24.1925 7.68311 24.1882 7.67651 24.1829 7.67114C24.1775 7.66577 24.1711 7.66162 24.1641 7.65918ZM11.3549 19.6416C10.1221 19.6416 9.10803 18.4543 9.10803 16.9983C9.10803 15.5403 10.1033 14.353 11.3549 14.353C12.6158 14.353 13.6205 15.55 13.6017 16.9983C13.6017 18.4543 12.6064 19.6416 11.3549 19.6416ZM19.661 19.6416C18.4298 19.6416 17.4142 18.4543 17.4142 16.9983C17.4142 15.5403 18.4095 14.353 19.661 14.353C20.922 14.353 21.9282 15.55 21.9078 16.9983C21.9078 18.4543 20.922 19.6416 19.661 19.6416Z" fill="#ABB2BF" fill-opacity="1.000000" fill-rule="nonzero"/>
</svg>
