<svg width="32.000000" height="32.000000" viewBox="0 0 32 32" fill="none" xmlns="http://www.w3.org/2000/svg" xmlns:xlink="http://www.w3.org/1999/xlink">
	<desc>
			Created with Pixso.
	</desc>
	<defs/>
	<path id="Vector" d="M5.0719 9.20288C5.2168 8.57715 5.57306 8.01831 6.08234 7.61816C6.59155 7.21777 7.22363 7 7.875 7L25.125 7C25.7764 7 26.4084 7.21777 26.9177 7.61816C27.4269 8.01831 27.7832 8.57715 27.9281 9.20288L16.5 16.0864L5.0719 9.20288ZM5 10.8208L5 20.8848L13.3418 15.8442L5 10.8208ZM14.7189 16.6758L5.27454 22.3809C5.50793 22.8657 5.87622 23.2754 6.33655 23.562C6.79694 23.8486 7.33044 24.0005 7.875 24L25.125 24C25.6694 24 26.2028 23.8479 26.6628 23.561C27.123 23.2742 27.491 22.8643 27.724 22.3794L18.2796 16.6743L16.5 17.7468L14.7189 16.6743L14.7189 16.6758ZM19.6582 15.8457L28 20.8848L28 10.8208L19.6582 15.8442L19.6582 15.8457Z" fill="#ABB2BF" fill-opacity="1.000000" fill-rule="nonzero"/>
</svg>
