<svg width="32.000000" height="32.000000" viewBox="0 0 32 32" fill="none" xmlns="http://www.w3.org/2000/svg" xmlns:xlink="http://www.w3.org/1999/xlink">
	<desc>
			Created with Pixso.
	</desc>
	<defs/>
	<path id="Vector" d="M5.07187 9.20291C5.2168 8.57709 5.57307 8.01833 6.08232 7.6181C6.59158 7.2179 7.22365 6.99995 7.875 7L25.125 7C25.7764 6.99995 26.4084 7.2179 26.9177 7.6181C27.4269 8.01833 27.7832 8.57709 27.9281 9.20291L16.5 16.0865L5.07187 9.20291ZM5 10.8208L5 20.8848L13.3418 15.8443L5 10.8208ZM14.7189 16.6758L5.27457 22.3808C5.5079 22.8656 5.87619 23.2753 6.33656 23.5619C6.79692 23.8486 7.33044 24.0005 7.875 24L25.125 24C25.6695 24.0001 26.2028 23.8479 26.6629 23.561C27.123 23.274 27.491 22.8643 27.724 22.3793L18.2796 16.6744L16.5 17.7468L14.7189 16.6744L14.7189 16.6758ZM19.6582 15.8457L28 20.8848L28 10.8208L19.6582 15.8443L19.6582 15.8457Z" fill="#ABB2BF" fill-opacity="1.000000" fill-rule="nonzero"/>
</svg>
