<svg width="32.000000" height="32.000000" viewBox="0 0 32 32" fill="none" xmlns="http://www.w3.org/2000/svg" xmlns:xlink="http://www.w3.org/1999/xlink">
	<desc>
			Created with Pixso.
	</desc>
	<defs/>
	<path id="Vector" d="M5.07178 9.20291C5.2168 8.57709 5.57324 8.01831 6.08252 7.6181C6.5918 7.2179 7.22363 6.99997 7.875 7L25.125 7C25.7764 6.99997 26.4082 7.2179 26.9175 7.6181C27.4268 8.01831 27.7832 8.57709 27.9282 9.20291L16.5 16.0865L5.07178 9.20291ZM5 10.8207L5 20.8847L13.3418 15.8442L5 10.8207ZM14.7188 16.6758L5.27441 22.3807C5.50781 22.8657 5.87598 23.2753 6.33643 23.562C6.79688 23.8486 7.33057 24.0005 7.875 24L25.125 24C25.6694 24.0001 26.2026 23.8479 26.6631 23.561C27.123 23.274 27.4912 22.8643 27.7241 22.3793L18.2798 16.6744L16.5 17.7468L14.7188 16.6744L14.7188 16.6758ZM19.6582 15.8457L28 20.8847L28 10.8207L19.6582 15.8442L19.6582 15.8457Z" fill="#ABB2BF" fill-opacity="1.000000" fill-rule="nonzero"/>
</svg>
