<svg width="32.000000" height="32.000000" viewBox="0 0 32 32" fill="none" xmlns="http://www.w3.org/2000/svg" xmlns:xlink="http://www.w3.org/1999/xlink">
	<desc>
			Created with Pixso.
	</desc>
	<defs/>
	<path id="Vector" d="M16 16C16 15.116 16.3687 14.2681 17.0251 13.643C17.6815 13.0179 18.5717 12.6667 19.5 12.6667C20.4283 12.6667 21.3185 13.0179 21.9749 13.643C22.6313 14.2681 23 15.116 23 16C23 16.884 22.6313 17.7319 21.9749 18.357C21.3185 18.9821 20.4283 19.3333 19.5 19.3333C18.5717 19.3333 17.6815 18.9821 17.0251 18.357C16.3687 17.7319 16 16.884 16 16ZM9 22.6667C9 21.7826 9.36874 20.9348 10.0251 20.3096C10.6815 19.6845 11.5717 19.3333 12.5 19.3333L16 19.3333L16 22.6667C16 23.5507 15.6313 24.3986 14.9749 25.0237C14.3185 25.6488 13.4283 26 12.5 26C11.5717 26 10.6815 25.6488 10.0251 25.0237C9.36874 24.3986 9 23.5507 9 22.6667ZM16 6L16 12.6667L19.5 12.6667C20.4283 12.6667 21.3185 12.3155 21.9749 11.6904C22.6313 11.0652 23 10.2174 23 9.33333C23 8.44928 22.6313 7.60143 21.9749 6.97632C21.3185 6.3512 20.4283 6 19.5 6L16 6ZM9 9.33333C9 10.2174 9.36874 11.0652 10.0251 11.6904C10.6815 12.3155 11.5717 12.6667 12.5 12.6667L16 12.6667L16 6L12.5 6C11.5717 6 10.6815 6.3512 10.0251 6.97632C9.36874 7.60143 9 8.44928 9 9.33333ZM9 16C9 16.884 9.36874 17.7319 10.0251 18.357C10.6815 18.9821 11.5717 19.3333 12.5 19.3333L16 19.3333L16 12.6667L12.5 12.6667C11.5717 12.6667 10.6815 13.0179 10.0251 13.643C9.36874 14.2681 9 15.116 9 16Z" fill="#ABB2BF" fill-opacity="1.000000" fill-rule="nonzero"/>
</svg>
