<svg width="32.000000" height="32.000000" viewBox="0 0 32 32" fill="none" xmlns="http://www.w3.org/2000/svg" xmlns:xlink="http://www.w3.org/1999/xlink">
	<desc>
			Created with Pixso.
	</desc>
	<defs/>
	<path id="Vector" d="M4 5.71899C4 4.7695 4.789 4 5.7625 4L26.2375 4C27.211 4 28 4.7695 28 5.71899L28 26.281C28 27.2305 27.211 28 26.2375 28L5.7625 28C4.789 28 4 27.2305 4 26.281L4 5.71899ZM11.4145 24.091L11.4145 13.2535L7.813 13.2535L7.813 24.091L11.4145 24.091ZM9.6145 11.773C10.87 11.773 11.6515 10.942 11.6515 9.901C11.629 8.83749 10.8715 8.02901 9.6385 8.02901C8.4055 8.02901 7.60001 8.839 7.60001 9.901C7.60001 10.942 8.3815 11.773 9.5905 11.773L9.6145 11.773ZM16.9765 24.091L16.9765 18.0385C16.9765 17.7145 17.0005 17.3905 17.0965 17.1595C17.356 16.513 17.9485 15.8425 18.9445 15.8425C20.248 15.8425 20.7685 16.8355 20.7685 18.2935L20.7685 24.091L24.37 24.091L24.37 17.875C24.37 14.545 22.594 12.997 20.224 12.997C18.313 12.997 17.4565 14.047 16.9765 14.7865L16.9765 14.824L16.9525 14.824C16.9605 14.8115 16.9685 14.799 16.9765 14.7865L16.9765 13.2535L13.3765 13.2535C13.4215 14.2705 13.3765 24.091 13.3765 24.091L16.9765 24.091Z" fill="#ABB2BF" fill-opacity="1.000000" fill-rule="nonzero"/>
</svg>
